<svg version="1.1" id="Layer_1" xmlns="http://www.w3.org/2000/svg" xmlns:xlink="http://www.w3.org/1999/xlink" x="0px" y="0px"
	 width="100%" viewBox="0 0 1024 624" enable-background="new 0 0 1024 624" xml:space="preserve">
<path fill="#000000" opacity="1.000000" stroke="none" 
	d="
M421.109375,79.150581 
	C416.929504,76.918182 419.124969,75.404533 421.498352,74.478500 
	C425.088135,73.077858 428.942780,72.758652 432.791199,72.701759 
	C434.756134,72.672707 436.721893,72.696663 439.691620,72.696663 
	C436.814178,65.741463 436.983612,59.641209 441.551880,54.366962 
	C443.128876,52.546261 445.069336,50.937958 448.983154,51.162399 
	C443.648651,57.429104 442.796661,63.708038 446.119629,70.469307 
	C458.956177,46.712940 480.215759,43.793774 503.573517,47.185410 
	C518.668396,49.377251 532.464539,55.067959 543.342102,66.433815 
	C546.400208,69.629166 548.686707,73.188560 549.850647,77.358215 
	C548.746704,79.582001 546.584534,78.835533 544.373169,79.580185 
	C548.021118,82.671539 552.636719,84.336235 554.918884,88.931877 
	C551.985657,90.329239 549.706970,88.436066 546.981750,87.769714 
	C547.444519,92.106544 549.521912,95.968735 548.665527,100.146667 
	C546.033813,101.458351 543.712830,99.641487 540.753967,99.713440 
	C542.020874,101.231728 542.988770,102.310745 543.867126,103.458290 
	C547.665344,108.420364 547.653870,114.208290 542.967896,118.276375 
	C539.560913,121.234047 538.710876,124.489723 539.411621,128.463867 
	C542.406311,145.449554 533.468872,159.961548 517.920959,166.543030 
	C513.612366,168.366898 509.474426,170.413132 506.425140,174.238174 
	C504.506073,176.645462 504.086914,178.399750 506.997742,180.328613 
	C511.982025,183.631393 515.581909,188.749329 521.206665,191.265198 
	C521.893005,191.572205 522.920776,192.553726 522.814026,192.975464 
	C521.632141,197.643463 525.827087,199.140976 527.872986,201.894852 
	C534.024658,210.175385 534.919617,220.051132 536.220581,229.779587 
	C540.554932,262.191772 546.352295,294.253052 559.289429,324.556396 
	C562.164124,331.289886 565.561096,337.799561 568.676147,344.431763 
	C569.983948,347.216278 570.625000,349.999359 569.249390,353.076782 
	C567.109741,357.863586 569.533875,363.689850 574.251770,365.640289 
	C584.173645,369.742157 585.885559,372.664154 584.446655,383.042389 
	C583.815063,387.598267 585.422119,388.965240 589.702454,389.902191 
	C598.395020,391.804871 605.932129,387.171356 614.101562,386.320770 
	C615.415771,386.183929 616.693787,385.717987 617.994873,385.433136 
	C626.285522,383.618011 628.815247,384.876465 630.361267,393.068634 
	C632.778931,405.879822 637.758606,417.954895 640.572510,430.630188 
	C641.038208,432.727814 641.157898,434.907043 641.369995,437.055237 
	C641.863708,442.057495 639.631592,445.136108 634.970276,447.057587 
	C623.382690,451.834167 611.056274,454.219818 599.287292,458.420715 
	C589.101440,462.056488 578.756165,465.273193 568.388184,468.362183 
	C560.276062,470.778992 556.552795,468.693298 554.159241,460.489410 
	C550.481628,447.884644 547.084229,435.198090 543.187622,421.177826 
	C540.445679,430.922607 539.803467,439.624054 538.401611,448.161346 
	C533.275452,479.378296 529.726440,510.780365 527.186340,542.321350 
	C526.602722,549.568481 531.206055,555.089722 531.111755,562.591309 
	C533.173035,560.433167 533.993896,556.976318 537.167969,558.094238 
	C540.340637,559.211609 539.323608,562.562439 540.026672,565.304138 
	C543.060608,564.878906 544.965637,562.594604 547.271240,561.181885 
	C553.920288,557.107788 557.548035,557.266479 563.290710,562.491333 
	C566.136902,565.080872 568.547485,568.102539 570.498779,571.408508 
	C575.559631,579.982727 571.371582,590.234131 561.205994,593.161011 
	C549.348694,596.575012 537.173462,595.988770 525.035645,594.805664 
	C513.779846,593.708557 502.497162,591.494080 491.275391,591.769714 
	C474.483185,592.182129 457.706635,593.377991 440.881683,593.147034 
	C436.427032,593.085815 432.015503,591.657166 427.027344,592.724548 
	C429.846954,596.579834 433.887360,597.030518 437.653900,597.483948 
	C456.366272,599.736816 474.778656,603.575317 493.105469,607.830505 
	C498.172913,609.007019 503.454224,609.717041 508.986908,612.288574 
	C506.358521,613.943909 504.413055,613.312683 502.635773,612.830811 
	C483.334778,607.597717 463.647186,604.263367 443.970734,600.901489 
	C437.419403,599.782104 430.791992,599.200256 424.327667,597.466187 
	C421.713989,596.765076 419.247009,596.354858 417.350983,594.119934 
	C415.852295,592.353333 413.554871,592.284546 411.335052,592.274658 
	C404.842133,592.245728 398.365540,591.948486 391.877930,591.576111 
	C386.414429,591.262512 381.750916,589.316040 376.883606,586.899170 
	C381.008698,584.737000 385.585052,586.282959 389.866699,585.210571 
	C384.181122,584.804749 378.495514,584.398926 372.809937,583.993042 
	C372.797821,583.500244 372.785706,583.007446 372.773590,582.514587 
	C377.562683,580.487061 382.951630,582.645081 387.674072,581.332214 
	C388.633026,580.220154 388.173248,579.233459 387.771271,578.361511 
	C381.237396,564.188477 383.788879,549.904602 387.808319,535.856140 
	C390.506165,526.426819 394.483063,517.376465 399.753845,508.999176 
	C401.811066,505.729340 404.396973,503.225861 408.652740,503.741638 
	C410.939178,504.018768 412.366638,502.671387 413.955719,501.451630 
	C427.463135,491.083313 439.775330,479.382477 451.928406,467.499878 
	C456.808350,462.728546 461.447998,457.629059 469.162476,457.590820 
	C471.969025,457.576935 471.921661,455.009796 471.654968,453.032471 
	C470.788666,446.609406 469.618011,440.226318 468.805695,433.797363 
	C467.532806,423.723419 466.343414,413.635681 465.352692,403.530853 
	C464.951141,399.435364 463.324402,397.927856 459.042694,397.932251 
	C444.376892,397.947327 429.749878,397.339081 415.471680,393.321136 
	C396.233215,387.907349 379.743225,378.679321 369.431519,360.737915 
	C363.967896,351.231720 361.959137,340.742706 362.070312,329.979309 
	C362.266876,310.945221 364.940491,292.182068 369.616608,273.718109 
	C370.768158,269.171173 372.526825,264.838287 374.727051,260.725220 
	C376.393524,257.609924 377.807709,254.897278 376.409912,250.993927 
	C375.246094,247.743896 377.831665,245.381577 380.879272,244.187607 
	C388.788269,241.089157 393.902222,235.650131 396.827759,227.534348 
	C401.371277,214.929977 408.705109,204.118347 419.491394,195.844635 
	C424.913818,191.685349 430.753113,189.035172 437.736298,188.625122 
	C446.559631,188.107040 455.237640,188.298889 464.086578,189.120407 
	C469.831635,189.653763 476.487915,186.869324 479.907227,180.868179 
	C481.817230,177.516037 484.074219,174.565353 486.847015,172.109268 
	C486.178955,170.120651 484.658051,170.471710 483.419128,170.328415 
	C479.103699,169.829330 474.793182,169.227554 470.882141,167.228745 
	C467.350769,165.423950 464.277740,164.681320 462.547058,170.300095 
	C457.653625,166.208725 453.250122,162.526993 449.091888,159.050339 
	C446.794250,158.756485 447.620880,161.325043 445.690491,161.539307 
	C445.465912,161.398392 444.722198,161.193817 444.442657,160.717041 
	C440.106140,153.321838 432.171356,148.015640 432.264008,138.306976 
	C428.461761,138.752457 426.818085,142.204163 423.209595,141.999969 
	C423.420898,134.715500 422.276184,127.515038 423.063263,120.206520 
	C420.760529,119.775330 420.202209,122.630806 418.190247,122.361992 
	C410.741516,114.416618 414.117432,96.054695 425.991547,80.449097 
	C424.692505,79.191269 422.930786,79.655861 421.109375,79.150581 
M511.427704,581.508850 
	C513.159607,584.519714 515.823975,586.255249 518.956543,587.686279 
	C526.353699,591.065552 534.125549,591.159973 541.930847,590.580994 
	C548.874939,590.065796 555.838379,589.283936 562.345398,586.488098 
	C565.987610,584.923157 568.170044,582.040588 568.629395,578.155273 
	C568.962036,575.341675 567.752014,573.062012 564.693481,571.492126 
	C561.742310,576.370483 557.581909,579.507446 552.241699,580.910339 
	C540.698059,583.942932 529.120972,585.400024 517.374390,581.812622 
	C515.349915,581.194336 513.114197,581.268005 510.264130,580.691406 
	C504.393982,579.300964 498.124176,579.883301 492.216858,577.374634 
	C493.197723,574.386475 495.371918,574.803406 497.225708,575.026489 
	C503.169983,575.741821 509.121307,576.458740 515.023132,577.452637 
	C523.720154,578.917358 532.359131,580.854675 541.269897,579.856506 
	C547.298157,579.181213 553.102844,577.787415 557.942566,573.850647 
	C562.729065,569.957092 561.871948,564.475098 556.133301,562.158875 
	C552.202332,560.572266 550.232422,563.485840 547.583008,565.741455 
	C550.524963,566.874451 553.244507,567.815857 553.152100,571.139404 
	C553.084167,573.581726 551.011719,574.437195 549.023987,574.815918 
	C545.889771,575.413086 542.667969,575.792480 541.335205,572.438110 
	C541.134033,569.962708 544.277039,570.493408 543.693298,567.730347 
	C539.371765,572.524841 533.991760,572.265564 528.455078,572.247742 
	C519.829651,572.219971 516.426208,570.641602 515.981323,565.465271 
	C526.270569,564.969666 528.565979,563.430359 526.771240,558.229492 
	C514.982483,563.761169 514.982605,563.764465 498.860626,564.298340 
	C497.684143,564.337280 496.321014,564.201172 495.644562,565.269043 
	C492.494019,570.242310 490.065887,575.523193 490.734680,581.597900 
	C490.957916,583.625549 492.429443,585.188049 494.427582,586.013855 
	C496.724518,586.963196 499.045685,587.855103 501.330536,588.832214 
	C504.302216,590.103210 506.474792,589.652161 507.588440,586.285217 
	C508.261719,584.249634 508.863037,582.104431 511.427704,581.508850 
M492.527466,323.636749 
	C488.975616,325.202576 485.664856,323.531403 482.307220,322.815887 
	C474.683807,321.191284 467.433716,318.259155 459.983612,315.880310 
	C458.554291,318.738251 459.432404,321.484406 458.789886,324.048950 
	C455.191345,338.412292 451.955505,352.863281 445.713257,366.431702 
	C442.603088,373.192108 443.074738,373.929565 449.756989,377.563507 
	C450.487732,377.960907 451.237061,378.330078 451.999664,378.662018 
	C469.164917,386.133514 487.078064,389.142059 505.628540,386.519653 
	C520.669373,384.393372 530.747742,376.258545 532.129822,360.121826 
	C532.899963,351.130035 532.677979,342.158752 533.083557,333.184845 
	C533.887024,315.406464 530.604858,298.524292 522.539734,282.480042 
	C511.406799,260.333008 496.795685,240.084152 487.258270,217.059647 
	C484.953644,211.495972 483.204895,210.462219 479.344299,208.151993 
	C485.576508,214.970154 489.486145,222.492538 492.300598,230.542587 
	C496.162231,241.587952 488.797394,253.566208 477.297516,255.079208 
	C474.413239,255.458679 472.850555,256.587830 473.301758,259.494598 
	C473.964081,263.761902 474.835052,267.999237 475.710876,272.229889 
	C476.113068,274.172821 477.731384,274.669373 479.453552,274.991364 
	C485.991058,276.213501 492.489532,277.690399 499.063599,278.657806 
	C505.831512,279.653778 506.769562,280.509857 505.310577,287.387817 
	C504.103516,293.078400 502.595612,298.714264 500.997162,304.310425 
	C499.027740,311.205261 499.341614,312.009430 505.462891,315.990082 
	C507.460846,317.289337 508.776794,317.116028 510.077454,315.299866 
	C513.480896,310.547363 516.613037,305.644196 518.348145,299.994080 
	C519.212830,297.178406 518.121826,295.074066 515.708069,293.657990 
	C514.315674,292.841125 512.773071,292.280365 511.418671,291.659637 
	C511.287201,289.246582 513.934509,290.345215 514.514832,288.770569 
	C513.087585,287.829468 510.732330,288.147125 510.352020,285.829407 
	C514.990356,284.116882 520.443665,285.790283 521.441528,289.679932 
	C522.263428,292.883514 524.005615,295.407776 525.697998,298.053040 
	C527.955933,301.582306 529.965393,305.214294 530.476135,309.468506 
	C530.872620,312.771118 530.671509,315.922028 527.241028,317.643707 
	C523.911804,319.314545 521.851685,317.015259 520.036804,314.776917 
	C518.709106,316.837189 517.579163,318.669220 516.366943,320.445038 
	C515.517944,321.688721 514.775024,322.740540 515.228699,324.514191 
	C518.110413,335.780273 515.802917,346.589447 512.037415,357.232880 
	C510.853912,360.578217 508.152588,362.297058 504.958801,362.930908 
	C492.120575,365.478821 479.463409,364.219116 466.982178,360.616455 
	C464.232605,359.822845 462.885010,357.900116 463.110352,354.989624 
	C463.636444,348.194183 464.356567,341.407135 464.636261,334.601776 
	C464.800262,330.611267 466.587280,329.513397 470.294983,329.654144 
	C477.616119,329.932159 484.949371,329.921112 492.278015,329.963989 
	C498.526611,330.000549 504.163879,327.855377 510.640503,324.844574 
	C504.867432,323.637390 501.211792,320.464722 497.135559,317.741119 
	C495.680603,319.725922 494.417694,321.448761 492.527466,323.636749 
M452.839111,306.582031 
	C463.642273,309.934235 474.467590,313.217621 485.234039,316.683807 
	C488.169861,317.628998 489.739868,317.079956 490.966370,314.092529 
	C494.575836,305.300629 497.565308,296.320160 500.127655,287.176300 
	C500.901825,284.413483 500.028015,282.936249 497.337708,282.573700 
	C486.592377,281.125610 476.072021,278.716339 465.756714,275.390198 
	C463.670776,274.717560 462.350006,275.128601 460.748047,277.079712 
	C456.494934,282.259827 450.619690,284.417755 443.937408,284.244934 
	C442.674805,284.212311 441.160278,284.250824 440.942810,281.689117 
	C448.504486,282.137543 454.926270,279.851410 459.494995,273.085663 
	C455.692322,270.067444 457.220642,267.506012 459.573242,264.278198 
	C464.912231,256.952850 470.809357,250.288437 478.267426,245.082672 
	C483.572968,241.379364 485.642731,236.115143 483.332672,230.283249 
	C479.282135,220.057526 474.465942,210.106003 464.878876,203.630997 
	C453.607330,196.018311 447.997681,197.433609 444.538452,210.640640 
	C439.192810,231.049911 428.916199,249.109558 419.598389,267.662811 
	C413.844238,279.120148 415.279877,286.241821 425.423767,294.229950 
	C433.324371,300.451538 442.723480,303.345825 452.839111,306.582031 
M446.711487,383.921753 
	C436.118530,378.491882 434.734039,375.095276 438.648743,364.192566 
	C439.435944,362.000153 440.213928,359.803528 440.942963,357.591309 
	C442.477081,352.936310 444.870361,348.513245 445.117493,343.713135 
	C443.614899,342.258148 442.050323,342.478546 440.589447,342.258392 
	C420.301392,339.200928 401.618195,332.472168 385.944489,318.663422 
	C377.908203,311.583313 374.945862,302.662048 375.768250,292.257721 
	C375.987335,289.485779 376.919800,286.807007 379.948944,286.096649 
	C381.909241,285.636932 384.064911,286.010162 386.461273,286.010162 
	C384.420349,275.936035 386.647980,266.452850 387.173157,256.728241 
	C383.098053,257.362885 380.797974,259.277069 379.390045,262.003876 
	C376.870605,266.883362 374.804321,271.967804 373.307159,277.281677 
	C368.479584,294.415741 367.236450,311.968384 367.169678,329.647095 
	C367.079773,353.455414 380.663330,373.422638 402.568726,382.850464 
	C420.739502,390.670898 439.890564,392.008514 459.236511,392.514557 
	C460.608643,392.550476 462.301056,392.709625 463.028076,390.534088 
	C457.783661,388.427795 452.586548,386.340515 446.711487,383.921753 
M450.908905,73.429817 
	C449.097931,76.680450 445.936859,77.079010 442.719299,77.187279 
	C438.566620,77.327003 434.631805,78.332581 431.831390,81.425995 
	C427.213257,86.527275 423.478241,92.288010 421.989319,99.133453 
	C421.215759,102.689850 419.701477,106.294853 421.008606,110.276100 
	C429.074097,105.631126 433.020935,97.353653 439.446564,91.427750 
	C434.399445,104.670235 425.775696,116.677612 429.521454,132.272980 
	C432.225433,130.957703 434.302063,130.552689 436.492767,130.676880 
	C438.065613,130.766022 439.595825,130.499527 440.156311,128.754791 
	C442.176880,122.465126 446.674438,118.920792 453.322327,117.532616 
	C451.437988,108.348167 448.350281,99.479881 453.811066,89.510269 
	C455.367767,104.141357 455.640778,105.054321 459.757629,110.346260 
	C472.173065,109.035118 468.938477,100.321091 467.264343,92.007172 
	C469.516876,93.150208 470.797974,93.875877 472.138184,94.467621 
	C478.884827,97.446419 488.504028,95.746643 493.662689,90.804230 
	C496.358948,88.220970 497.417236,85.470779 495.598389,81.881760 
	C494.670135,80.050041 493.266724,78.172188 495.038574,74.307732 
	C500.417511,82.000748 506.683319,88.017410 515.274048,89.917656 
	C523.695618,91.780495 532.351379,92.584877 541.580994,93.954201 
	C538.471802,83.280037 530.067078,78.337914 522.323120,71.368454 
	C529.803528,70.590866 535.268921,73.693344 541.147583,72.791443 
	C540.519165,70.445343 538.816895,69.289955 537.346924,68.026672 
	C522.102600,54.925488 504.158112,49.885330 484.468567,51.538338 
	C469.964508,52.756004 457.777771,58.573681 450.908905,73.429817 
M460.997375,513.541870 
	C451.495300,520.703430 441.993225,527.865051 432.130829,535.298157 
	C436.705933,535.963196 437.655121,538.154541 435.949188,541.732910 
	C435.233521,543.234131 434.847168,544.938660 433.925232,546.286926 
	C430.549164,551.224365 426.751129,555.970947 429.962860,562.523987 
	C430.201294,563.010498 429.723267,563.810669 429.697998,564.469604 
	C429.471008,570.398682 428.654175,576.186340 425.285919,580.734619 
	C444.047241,580.734619 462.338074,580.737976 480.628876,580.727722 
	C482.001404,580.726929 483.629578,580.559631 483.910095,579.029236 
	C485.033020,572.902832 489.843658,568.331116 491.098114,562.357971 
	C486.634613,559.306763 486.562836,559.259644 487.267273,555.591980 
	C490.381104,539.379456 491.484741,522.943970 492.721497,506.525177 
	C493.077515,501.798920 493.221771,497.056702 493.472565,492.136658 
	C492.533447,492.285889 491.961761,492.213715 491.606049,492.457092 
	C481.577576,499.319061 471.570892,506.212830 460.997375,513.541870 
M607.476562,392.122986 
	C606.023926,392.488831 604.570801,392.852722 603.118713,393.220825 
	C591.081055,396.272491 591.039795,396.288940 595.623535,407.975281 
	C596.393494,409.938568 596.813293,411.513184 594.468018,412.475311 
	C589.867188,414.362854 585.515808,416.833038 580.423706,417.513367 
	C577.039185,417.965515 575.136169,416.843353 573.685486,413.866730 
	C571.398743,409.174225 570.559326,404.142181 569.980774,398.856018 
	C566.034302,399.184082 564.308289,400.950409 564.251953,404.631592 
	C564.199829,408.035828 564.793030,411.271973 566.087891,414.372864 
	C569.877014,423.447174 573.279602,432.648346 575.633240,442.214294 
	C576.383118,445.262421 577.290833,447.843781 581.546753,447.069763 
	C583.744324,446.670044 585.704651,448.191528 586.382385,450.591797 
	C587.118286,453.197662 585.530396,454.636627 583.531616,455.786469 
	C578.296753,458.798004 574.115784,457.199432 571.978271,450.859467 
	C570.069214,445.197174 568.556946,439.384094 567.173828,433.565216 
	C564.684875,423.093933 557.800659,413.691650 560.153381,401.822113 
	C556.362244,403.240234 553.297424,404.539001 550.135742,405.527893 
	C546.747009,406.587799 545.917786,408.535522 546.667053,411.962402 
	C550.157410,427.927216 555.737610,443.284271 560.128479,458.984802 
	C561.225830,462.908630 563.618530,464.336853 567.698547,462.807129 
	C574.397156,460.295654 581.116699,457.809998 587.935425,455.655273 
	C601.904114,451.241058 615.964111,447.116638 629.946228,442.744080 
	C636.258423,440.770142 637.459534,438.850342 635.804871,432.359314 
	C632.438538,419.153839 627.485046,406.358002 625.719116,392.735718 
	C625.330872,389.741272 623.140503,389.074127 620.518494,389.544922 
	C616.427795,390.279480 612.354736,391.112305 607.476562,392.122986 
M502.314789,408.960724 
	C498.046326,410.377533 493.814575,411.921295 489.497498,413.170013 
	C486.190338,414.126648 484.980591,416.106415 485.252472,419.446716 
	C485.792572,426.082581 486.123383,432.735229 486.629150,439.374176 
	C487.301178,448.195343 487.285736,457.023529 486.745514,465.837982 
	C486.611023,468.032410 486.317505,470.767365 483.396515,471.389801 
	C480.848938,471.932617 479.542847,469.948151 478.098999,468.314697 
	C477.334717,467.450165 477.020142,466.035889 475.492920,465.741455 
	C475.487701,469.508911 477.624084,472.895203 476.491699,476.489166 
	C473.364471,477.270294 472.887848,473.695160 470.595001,473.308380 
	C462.016724,481.308533 453.653229,489.411102 444.430573,496.595734 
	C436.421082,502.835297 428.833649,509.617371 421.076416,516.179382 
	C419.429596,517.572510 417.285217,518.980469 419.598083,521.417908 
	C422.786469,524.778015 426.099121,528.020325 429.504639,531.460693 
	C431.110291,530.461609 432.627106,529.733215 433.892792,528.697876 
	C452.362579,513.588806 472.359253,500.606049 491.815216,486.864746 
	C499.211060,481.641235 505.710022,475.288757 508.559174,466.264252 
	C512.318054,454.358398 516.036133,442.424652 517.403503,429.934845 
	C518.340454,421.376617 519.226624,412.809570 518.518921,403.419098 
	C513.037659,405.284607 508.046478,406.983307 502.314789,408.960724 
M499.550110,186.436539 
	C501.621124,185.781387 501.621155,185.781387 501.141144,182.659790 
	C499.067230,169.173264 499.697418,168.090714 512.129822,163.743103 
	C513.072388,163.413483 514.012878,163.073181 514.935913,162.693115 
	C528.285645,157.196106 534.847290,147.251328 534.668091,132.802582 
	C534.581909,125.859413 534.581970,125.859406 527.801636,126.262169 
	C516.296631,126.945595 516.210266,126.979973 511.883423,116.111015 
	C510.709137,113.161194 509.129791,111.857285 505.906250,112.346199 
	C502.309937,112.891647 502.973969,115.511398 503.194733,117.698456 
	C504.204315,127.701057 500.565125,132.622849 488.135925,133.237747 
	C484.281189,133.428452 479.388977,134.696548 477.097656,130.562302 
	C473.713013,124.455360 468.360870,125.083206 462.943085,124.719269 
	C460.727661,129.150879 463.997620,133.287384 463.404968,137.442719 
	C459.018280,137.558426 456.828644,136.281967 454.901947,132.571152 
	C453.983215,130.801651 453.400177,128.822540 452.287292,127.197037 
	C450.400177,124.440681 447.623260,124.657677 445.874481,127.483192 
	C443.583374,131.184998 444.160461,137.596436 447.284454,141.622452 
	C450.119751,145.276306 453.885986,146.871948 458.313721,145.196777 
	C462.661987,143.551697 463.814880,145.071106 464.087128,149.298965 
	C464.655029,158.119507 469.022980,162.852310 477.651825,164.690414 
	C480.253448,165.244629 482.860291,165.911850 485.497650,166.130554 
	C490.125824,166.514343 491.524536,169.618301 490.016327,173.004288 
	C487.684601,178.239151 490.781525,180.276749 494.131989,182.614426 
	C495.770721,183.757828 497.403717,184.909454 499.550110,186.436539 
M518.073242,454.405914 
	C516.135864,462.150635 513.679993,469.808105 512.359070,477.656555 
	C508.523010,500.449127 504.870911,523.275208 502.949097,546.344238 
	C501.913727,558.772095 502.887695,559.848145 515.208740,557.393555 
	C515.861206,557.263611 516.491516,556.998352 517.147400,556.913513 
	C521.355530,556.369019 522.839417,554.112854 522.881348,549.790833 
	C523.026428,534.808289 524.390991,519.882874 525.954041,504.989319 
	C529.026550,475.712402 534.735474,446.805145 538.345825,417.606323 
	C539.249023,410.301147 540.520813,402.902557 539.261719,394.385956 
	C533.555908,400.901062 529.631042,407.364685 527.774841,414.831146 
	C524.565125,427.741486 520.590881,440.466553 518.073242,454.405914 
M433.114685,320.857269 
	C434.349884,320.766174 435.642151,321.647736 436.903564,320.664490 
	C434.421112,316.462646 428.839172,316.362946 425.999695,312.647919 
	C427.382629,311.073029 428.693207,311.785797 429.883606,312.161743 
	C434.252502,313.541595 438.149170,315.530396 440.680328,319.689545 
	C442.023621,321.896790 448.691986,323.158905 450.121674,321.459717 
	C452.592926,318.522583 449.917328,316.192322 448.421295,314.014465 
	C446.669037,311.463470 443.756409,310.332336 440.987915,309.163544 
	C435.460358,306.830048 430.054993,304.265808 424.867126,301.231995 
	C411.698547,293.531036 406.890869,277.585663 413.822296,264.063477 
	C417.846588,256.212738 422.168365,248.513000 426.120209,240.627014 
	C430.480072,231.926773 434.093323,222.917389 436.883789,212.884140 
	C427.973450,213.910507 419.707489,215.023331 415.773499,223.297653 
	C404.835663,246.303024 398.797668,269.915802 405.593536,295.735626 
	C409.437958,310.341980 416.956238,319.356659 433.114685,320.857269 
M430.566071,542.102966 
	C427.512299,541.820312 424.344482,544.389343 421.175232,541.962097 
	C424.752045,538.112793 424.752045,538.112793 423.304657,535.612671 
	C421.477325,538.125488 419.770752,540.472290 418.356750,542.416687 
	C416.242889,543.290710 415.563965,540.946838 413.815887,541.353760 
	C416.672424,546.360657 422.557343,544.596680 426.586945,547.063843 
	C422.900970,550.290527 418.998901,550.386841 414.118622,547.648315 
	C411.609253,546.240234 409.953247,544.364258 410.356567,541.246338 
	C410.797058,537.840637 412.887604,536.454712 416.650421,536.934021 
	C413.581482,528.993713 409.595947,521.921570 410.331055,513.564331 
	C410.455444,512.149597 409.890442,510.013794 407.923828,509.579437 
	C406.011719,509.157135 404.954926,510.772797 403.913605,512.045654 
	C403.287506,512.811035 402.793274,513.701538 402.337250,514.586060 
	C396.250183,526.392639 392.547058,539.005188 390.507690,552.042969 
	C389.061981,561.285645 390.323395,570.330139 395.308533,578.540833 
	C399.138123,584.848267 405.224396,587.298340 411.391327,585.078125 
	C419.653015,582.103577 425.181366,574.913757 424.423981,567.759583 
	C421.446960,570.213318 417.987915,571.434753 414.641602,572.870544 
	C408.750610,575.398193 406.049683,574.656860 403.238586,569.004211 
	C397.337738,557.138550 396.679840,544.759399 400.565643,532.152527 
	C401.143738,530.277039 401.796875,527.999146 405.264160,527.869812 
	C404.402313,531.758301 403.463593,535.232971 402.881073,538.766357 
	C401.232269,548.767151 402.563232,558.328247 407.649048,567.207153 
	C408.623596,568.908447 409.914795,571.366394 412.105652,570.425293 
	C417.159821,568.254211 422.438568,566.181030 425.872375,561.402832 
	C422.489624,562.856628 419.085510,563.042542 415.648590,562.207397 
	C413.750885,561.746216 411.261566,561.429138 411.031036,559.048584 
	C410.670868,555.328979 412.311615,551.371887 408.742706,547.999573 
	C413.890717,548.529419 417.302765,552.291992 422.201172,551.353943 
	C427.373688,550.363464 429.640228,546.921631 430.566071,542.102966 
M510.453064,344.971985 
	C511.607025,339.531769 513.615784,334.135254 511.431427,328.167542 
	C506.213287,331.556458 500.663940,332.844635 494.809906,333.540741 
	C487.649567,334.392120 480.508911,334.104553 473.368439,333.892273 
	C470.386261,333.803589 469.077942,334.595764 468.979248,337.640045 
	C468.828400,342.291656 468.400391,346.933533 468.168121,351.583466 
	C468.009399,354.760468 469.483398,356.334198 472.766266,356.874176 
	C479.677368,358.010834 486.555511,358.989410 493.600464,358.759857 
	C505.369415,358.376434 507.199097,357.043274 510.453064,344.971985 
M401.263092,227.724564 
	C394.509674,244.459015 391.241882,261.805817 392.236633,279.872253 
	C393.014557,294.000702 397.086456,302.297974 406.428467,309.156311 
	C390.917389,279.868866 395.618317,221.718109 437.727570,193.279984 
	C432.527771,192.760727 428.562653,194.584198 424.829437,197.110748 
	C413.833099,204.552826 406.792847,215.093307 401.263092,227.724564 
M536.794800,261.570343 
	C535.778625,256.348419 534.206482,251.163773 533.853088,245.897369 
	C532.885925,231.485413 525.838867,219.611481 518.777039,207.647995 
	C526.732971,230.457870 531.028442,254.223297 537.494202,277.406342 
	C543.413269,298.629639 546.998718,320.202850 548.428772,342.194153 
	C549.182617,353.786041 549.427917,365.485168 552.445312,376.819519 
	C552.948486,378.709595 552.722168,381.312225 555.489075,381.915161 
	C557.109192,381.017365 556.710205,379.535645 556.619873,378.297485 
	C555.894531,368.350494 555.807556,358.357147 554.297852,348.466339 
	C549.876953,319.502319 543.301941,290.975525 536.794800,261.570343 
M544.762024,335.497070 
	C543.430176,316.524597 540.031982,297.834320 535.236084,279.519440 
	C528.672485,254.453461 520.939697,229.694427 513.786621,204.781281 
	C512.460022,200.160950 510.030212,196.392776 506.189117,192.348679 
	C507.109528,197.105026 509.249603,200.648209 508.126129,204.845001 
	C505.144836,204.274536 506.293396,201.376221 504.713531,199.854233 
	C503.258392,201.695282 501.717499,203.111969 504.398010,205.190201 
	C512.875305,211.762802 516.242432,221.167160 519.379700,231.014603 
	C524.648193,247.551865 526.098389,264.919464 531.205627,281.473175 
	C536.102234,297.344208 537.893860,313.673065 537.263550,330.274414 
	C537.137390,333.597748 537.325867,336.931854 537.279785,340.259766 
	C537.245789,342.712952 538.206909,344.025757 540.806030,343.916656 
	C543.111084,343.819855 544.666626,342.970306 544.723572,340.411194 
	C544.753235,339.080444 544.761597,337.749237 544.762024,335.497070 
M415.221832,329.333069 
	C424.894806,332.634674 434.825775,334.472168 445.054688,334.780487 
	C448.038391,334.870422 449.258270,333.404785 449.629089,330.708221 
	C450.071838,327.488647 447.898438,327.374725 445.622925,327.026733 
	C440.361572,326.222137 435.107452,325.341400 429.885681,324.312531 
	C411.765015,320.741974 397.121887,311.769653 386.575867,296.385590 
	C385.231049,294.423798 384.151428,291.997101 381.108002,291.059448 
	C378.497864,298.636078 381.623138,304.404449 386.324341,309.659332 
	C394.137726,318.393005 403.897827,324.343628 415.221832,329.333069 
M480.322144,127.297501 
	C485.283234,130.197052 490.231293,128.969437 495.142548,127.182327 
	C496.440002,126.710213 497.470032,125.716560 497.519745,124.246635 
	C497.665009,119.949219 498.272644,115.559464 496.678833,111.431709 
	C494.841919,106.674316 490.687317,105.797310 486.385040,106.691765 
	C482.537994,107.491577 477.400665,107.635460 477.183075,113.231018 
	C477.004883,117.813911 477.490540,122.502457 480.322144,127.297501 
M535.014587,372.162659 
	C533.485229,378.505981 531.117615,384.512268 527.116882,390.301971 
	C535.746216,386.158447 542.813171,381.469910 543.458435,371.360596 
	C543.774719,366.404541 544.358826,361.464081 544.606140,356.505829 
	C544.721558,354.191132 545.478149,351.311279 541.383972,351.198059 
	C537.520996,351.091217 536.614868,353.328522 536.377991,356.477234 
	C536.005615,361.427429 535.576050,366.373322 535.014587,372.162659 
M511.432556,103.063889 
	C514.114075,97.250458 519.536926,98.143417 524.541626,97.816048 
	C517.469910,96.729744 510.849884,94.655098 504.815765,90.995331 
	C502.886475,89.825165 501.528687,89.897865 500.124207,91.687813 
	C495.138641,98.041512 488.095306,100.237152 480.500793,101.385902 
	C478.741241,101.652046 476.488098,101.346352 475.329865,104.339592 
	C479.639038,103.173622 483.344330,101.723518 487.170197,101.252243 
	C491.673859,100.697472 496.614838,99.766167 499.912567,104.474037 
	C503.109528,109.038048 508.046265,108.729095 511.432556,103.063889 
M509.033783,229.574677 
	C512.763123,237.796326 516.492432,246.017990 520.221741,254.239655 
	C519.529175,245.038483 517.607178,236.158356 514.858948,227.488022 
	C512.571960,220.273026 508.903381,213.789673 503.050659,208.789566 
	C501.649933,207.592911 500.159943,205.712891 497.704468,207.939774 
	C500.393341,215.398666 505.236908,221.806427 509.033783,229.574677 
M518.384338,121.277344 
	C522.639954,124.181641 526.953308,122.606506 531.207642,121.325142 
	C531.799927,121.146751 532.533203,120.052963 532.504028,119.414772 
	C532.284424,114.609001 532.262329,109.715897 529.662292,105.409988 
	C528.858093,104.078148 527.481018,103.352654 525.867432,103.338318 
	C516.868347,103.258369 513.762146,107.292442 516.204590,115.956421 
	C516.652588,117.545738 517.375916,119.057449 518.384338,121.277344 
M485.309143,182.073486 
	C482.457306,185.102692 482.254272,187.875107 485.393585,191.079285 
	C488.161896,193.904785 490.423584,197.240707 492.795013,200.435867 
	C494.291595,202.452347 495.905609,204.571442 498.226288,201.898117 
	C500.386292,199.409866 505.192108,196.835922 501.858948,193.048645 
	C497.554138,188.157410 492.270905,183.974640 485.309143,182.073486 
M544.647400,401.165283 
	C551.503784,401.073639 557.452698,398.293396 563.742798,395.299103 
	C561.204834,391.143127 560.489136,385.946014 553.969727,387.720673 
	C551.652222,388.351532 550.539856,386.226440 549.736694,384.287842 
	C549.099854,382.750610 549.135925,380.868927 547.564636,379.390533 
	C545.576843,386.595367 545.552490,393.629669 544.647400,401.165283 
M568.817322,366.721375 
	C566.437256,365.005798 565.962158,361.613556 562.767822,359.679565 
	C560.646423,365.337677 561.206604,370.693909 561.373718,376.275116 
	C570.007812,371.255554 573.299316,378.204895 577.143616,383.283813 
	C582.133728,379.328827 581.521240,374.111359 576.057861,371.323608 
	C573.700806,370.120850 571.125793,369.333527 568.817322,366.721375 
M517.824280,257.544220 
	C514.782166,250.728058 511.721802,243.919937 508.702148,237.093857 
	C504.112335,226.718307 500.275177,220.325378 497.290039,218.435944 
	C498.660522,237.356689 513.753601,249.200775 520.942322,264.992371 
	C519.994080,262.745026 519.045837,260.497650 517.824280,257.544220 
M590.014587,404.104218 
	C588.485596,400.987244 589.660339,397.638031 589.479248,394.058502 
	C584.471497,394.311615 580.122620,395.631500 575.839722,397.565948 
	C575.974792,401.252625 578.277527,403.897430 579.384277,406.979614 
	C580.026611,408.768616 580.714661,411.418335 583.403992,410.082520 
	C585.955872,408.814941 590.770264,410.130035 590.014587,404.104218 
M471.621735,192.085175 
	C470.857269,193.070984 471.605804,193.612045 472.280609,194.069107 
	C482.191589,200.782120 489.177185,209.819824 493.648041,221.854614 
	C493.574036,209.852158 490.318298,203.120956 481.193604,193.634949 
	C478.354614,190.683578 475.733795,189.486038 471.621735,192.085175 
M458.165588,149.706070 
	C449.397949,150.851227 444.334015,146.031281 440.748535,138.100540 
	C440.399353,147.867981 453.729980,156.633835 460.444580,158.152771 
	C460.337494,155.292419 460.235046,152.559326 458.165588,149.706070 
M559.560791,336.942474 
	C558.639648,335.220825 557.718567,333.499146 556.797485,331.777496 
	C557.804260,338.993347 557.266663,346.303436 559.624451,353.412415 
	C563.970459,351.614960 565.677490,349.340759 563.444336,345.205597 
	C562.116089,342.745972 561.076904,340.130188 559.560791,336.942474 
M443.691406,201.457855 
	C444.370575,200.222321 445.942535,199.422195 445.490662,197.132538 
	C438.682953,197.703339 434.619659,202.527267 430.016571,206.487061 
	C434.788818,205.851974 440.356720,207.680176 443.691406,201.457855 
M472.487549,114.331116 
	C469.449066,112.047997 466.177155,113.151344 462.728210,117.868683 
	C465.895874,119.993538 468.979919,121.786171 473.161346,120.056046 
	C472.962006,118.260155 472.783173,116.648903 472.487549,114.331116 
M387.056396,246.039062 
	C385.547760,246.710541 384.007050,247.319733 382.541840,248.075424 
	C381.569702,248.576813 381.156067,249.466171 381.579926,250.577301 
	C381.849823,251.284744 382.426208,251.461731 383.140839,251.520401 
	C386.385498,251.786804 389.581390,248.743927 389.956543,244.743713 
	C389.106567,245.101318 388.372131,245.410324 387.056396,246.039062 
M418.815765,558.693481 
	C420.991852,558.677246 423.325165,559.077087 424.837555,556.759399 
	C422.963776,554.978516 420.816376,555.482544 418.942383,554.999268 
	C417.730377,554.686768 416.166199,553.805115 415.576752,555.655884 
	C414.943665,557.643677 416.646698,558.108215 418.815765,558.693481 
M525.883057,211.616226 
	C526.663513,213.140961 527.443970,214.665710 528.224487,216.190445 
	C526.590881,211.140533 527.060913,204.918823 520.546875,202.583389 
	C522.202393,205.391739 523.857971,208.200104 525.883057,211.616226 
M524.907593,309.598633 
	C525.351746,310.058075 525.795898,310.517517 526.240051,310.976959 
	C525.731812,311.408417 527.113831,311.409210 526.916138,311.234131 
	C526.460205,308.380066 525.728577,306.035217 523.795349,303.541473 
	C522.465027,306.057556 521.698730,308.091339 521.430359,310.419189 
	C522.608948,310.032104 523.507263,309.737030 524.907593,309.598633 
M470.581543,198.874039 
	C468.657074,198.141159 467.332245,196.105499 463.749847,196.205246 
	C467.918549,198.967422 471.193695,201.137512 474.468842,203.307602 
	C474.671722,203.064148 474.874634,202.820694 475.077545,202.577255 
	C473.766876,201.467926 472.456177,200.358612 470.581543,198.874039 
M507.892731,189.686676 
	C508.806610,191.260040 510.022766,192.396027 512.020813,192.626083 
	C509.833984,188.201492 509.833984,188.201492 506.654602,186.206482 
	C507.028351,187.325119 507.330292,188.228806 507.892731,189.686676 
z"/>
<path fill="#000000" opacity="1.000000" stroke="none" 
	d="
M528.963135,343.304016 
	C528.046692,347.944305 525.387329,346.467987 522.432129,345.593018 
	C523.866028,342.170776 526.095642,341.969086 528.963135,343.304016 
z"/>
<path fill="#000000" opacity="1.000000" stroke="none" 
	d="
M524.845459,338.479614 
	C524.287842,335.279877 526.161011,335.280304 528.056396,335.781952 
	C529.300110,336.111145 529.979126,337.444336 529.438721,338.555725 
	C528.235474,341.030426 526.570862,339.984802 524.845459,338.479614 
z"/>
<path fill="#000000" opacity="1.000000" stroke="none" 
	d="
M527.857788,350.988068 
	C525.986145,353.426453 524.189514,354.009491 522.028259,351.385529 
	C523.933960,349.374664 525.651611,347.998352 527.857788,350.988068 
z"/>
<path fill="#000000" opacity="1.000000" stroke="none" 
	d="
M447.412964,274.524292 
	C442.539337,276.182861 438.638062,279.793854 433.187286,278.651062 
	C438.290009,273.940460 444.350555,270.970551 451.236389,268.688904 
	C448.843536,265.822632 444.673279,265.822266 443.434814,262.346527 
	C447.341309,260.732513 454.539459,264.633209 455.019318,268.462158 
	C455.219513,270.059601 454.295258,270.950073 453.071960,271.613007 
	C451.317993,272.563538 449.524872,273.441925 447.412964,274.524292 
z"/>
<path fill="#000000" opacity="1.000000" stroke="none" 
	d="
M471.761292,234.840271 
	C473.470856,231.986786 474.020569,228.670807 477.920746,226.704758 
	C478.002350,232.339600 475.451813,235.603760 472.553589,238.776886 
	C470.192993,237.613754 471.366486,236.336929 471.761292,234.840271 
z"/>
<path fill="#000000" opacity="1.000000" stroke="none" 
	d="
M502.047791,151.557251 
	C506.962982,151.667389 510.991119,149.454895 516.807190,148.226746 
	C511.886475,154.122742 508.974152,159.990768 501.943207,161.189606 
	C495.346741,162.314377 491.164246,158.298065 487.987732,153.501511 
	C486.147522,150.722824 483.073029,148.707306 482.421661,144.769806 
	C488.498291,148.294922 494.580688,151.369873 502.047791,151.557251 
M502.832245,157.532059 
	C505.026367,156.833054 507.139740,156.004410 509.024841,153.553818 
	C502.317169,155.019760 496.279358,153.999313 489.423309,151.921967 
	C493.374756,156.194977 497.263824,157.981094 502.832245,157.532059 
z"/>
<path fill="#000000" opacity="1.000000" stroke="none" 
	d="
M515.805908,131.362381 
	C517.656067,130.605606 518.814392,131.032440 519.149292,132.672729 
	C519.518616,134.481186 518.818359,136.005493 517.221985,136.929245 
	C514.507324,138.500122 511.591766,138.718811 507.964325,137.877884 
	C510.690033,135.580200 514.185547,134.789413 515.805908,131.362381 
z"/>
<path fill="#000000" opacity="1.000000" stroke="none" 
	d="
M451.545349,136.239777 
	C451.184814,133.917236 450.275177,132.021347 451.193237,130.010635 
	C454.103729,132.026520 454.619812,133.547150 454.953094,140.991257 
	C452.145782,140.356628 452.145782,140.356628 451.545349,136.239777 
z"/>
<path fill="#000000" opacity="1.000000" stroke="none" 
	d="
M484.000610,116.362793 
	C485.530884,114.139053 487.299896,113.661446 489.313934,114.839836 
	C490.607513,115.596703 490.882050,116.858238 490.428101,118.288536 
	C489.913177,119.910965 488.783661,120.852188 487.132599,120.706795 
	C484.822266,120.503342 483.531982,119.221779 484.000610,116.362793 
z"/>
<path fill="#000000" opacity="1.000000" stroke="none" 
	d="
M518.963074,115.303116 
	C518.345520,113.058609 518.279968,111.247673 520.741272,110.733109 
	C522.439087,110.378159 523.537476,111.414162 524.340942,112.769440 
	C525.095276,114.041840 525.160828,115.325287 523.907043,116.307518 
	C522.127930,117.701324 520.540283,117.127960 518.963074,115.303116 
z"/>
</svg>